<svg width="238" height="30" viewBox="0 0 238 30" fill="none" xmlns="http://www.w3.org/2000/svg">
<path d="M11.324 29.456C9.272 29.456 7.448 29.038 5.852 28.202C4.256 27.366 3.002 26.2007 2.09 24.706C1.20333 23.2113 0.76 21.476 0.76 19.5C0.76 17.524 1.20333 15.7887 2.09 14.294C2.97667 12.7993 4.20533 11.634 5.776 10.798C7.34667 9.962 9.158 9.544 11.21 9.544C13.1607 9.544 14.8707 9.97467 16.34 10.836C17.8347 11.672 19 12.9513 19.836 14.674C20.6973 16.3967 21.128 18.5753 21.128 21.21H6.916L7.752 20.222C7.752 21.0327 7.87867 21.742 8.132 22.35C8.38533 22.958 8.76533 23.4267 9.272 23.756C9.77867 24.0853 10.3993 24.25 11.134 24.25C11.97 24.25 12.692 24.06 13.3 23.68C13.9333 23.2747 14.326 22.7807 14.478 22.198L20.482 24.06C20.026 25.3773 19.2913 26.4413 18.278 27.252C17.29 28.0373 16.1753 28.6073 14.934 28.962C13.718 29.2913 12.5147 29.456 11.324 29.456ZM7.79 18.132L7.068 17.03H14.934L14.25 18.132C14.25 17.144 14.0853 16.3713 13.756 15.814C13.4267 15.2567 13.0087 14.864 12.502 14.636C12.0207 14.3827 11.5267 14.256 11.02 14.256C10.488 14.256 9.96867 14.3827 9.462 14.636C8.98067 14.864 8.57533 15.2567 8.246 15.814C7.942 16.3713 7.79 17.144 7.79 18.132ZM30.4154 29.456C29.1488 29.456 27.9708 29.2787 26.8814 28.924C25.7921 28.5693 24.8548 28.0753 24.0694 27.442C23.3094 26.7833 22.7774 25.998 22.4734 25.086L27.9074 22.958C28.1861 23.642 28.5788 24.0853 29.0854 24.288C29.5921 24.4653 30.0354 24.554 30.4154 24.554C30.8208 24.554 31.1501 24.4653 31.4034 24.288C31.6568 24.1107 31.7834 23.8573 31.7834 23.528C31.7834 23.1733 31.6061 22.882 31.2514 22.654C30.8968 22.4007 30.3521 22.1853 29.6174 22.008L28.0594 21.628C26.3621 21.1973 25.0828 20.45 24.2214 19.386C23.3601 18.322 22.9294 17.0807 22.9294 15.662C22.9294 13.7113 23.6388 12.204 25.0574 11.14C26.5014 10.076 28.4521 9.544 30.9094 9.544C32.4041 9.544 33.6581 9.734 34.6714 10.114C35.7101 10.4687 36.5588 10.9753 37.2174 11.634C37.8761 12.2927 38.3828 13.0527 38.7374 13.914L33.4554 15.928C33.2781 15.4213 32.9741 15.054 32.5434 14.826C32.1381 14.598 31.6314 14.484 31.0234 14.484C30.5928 14.484 30.2508 14.5853 29.9974 14.788C29.7694 14.9907 29.6554 15.2313 29.6554 15.51C29.6554 15.814 29.8328 16.08 30.1874 16.308C30.5674 16.5107 31.1374 16.7133 31.8974 16.916L33.4554 17.296C34.6208 17.5747 35.6341 18.0053 36.4954 18.588C37.3568 19.1453 38.0281 19.842 38.5094 20.678C38.9908 21.514 39.2314 22.4767 39.2314 23.566C39.2314 24.8073 38.8641 25.8713 38.1294 26.758C37.3948 27.6193 36.3688 28.2907 35.0514 28.772C33.7341 29.228 32.1888 29.456 30.4154 29.456ZM50.3735 29.456C48.0175 29.456 46.2695 28.8987 45.1295 27.784C43.9895 26.6693 43.4195 25.0733 43.4195 22.996V4.072H50.2595V21.134C50.2595 21.8433 50.3608 22.35 50.5635 22.654C50.7661 22.958 51.1081 23.11 51.5895 23.11C51.7921 23.11 52.0455 23.0467 52.3495 22.92C52.6535 22.7933 52.8941 22.6667 53.0715 22.54L55.3895 27.48C54.8068 27.9867 54.0468 28.4427 53.1095 28.848C52.1721 29.2533 51.2601 29.456 50.3735 29.456ZM40.5695 15.7V10H54.1735V15.7H40.5695ZM68.5814 29L68.3914 24.63V19.69C68.3914 18.8033 68.3407 18.0053 68.2394 17.296C68.1381 16.5867 67.8847 16.0293 67.4794 15.624C67.0741 15.2187 66.4154 15.016 65.5034 15.016C64.8701 15.016 64.3507 15.168 63.9454 15.472C63.5401 15.776 63.1981 16.1307 62.9194 16.536L56.9534 14.636C57.4854 13.5973 58.1441 12.698 58.9294 11.938C59.7401 11.178 60.6774 10.5953 61.7414 10.19C62.8307 9.75933 64.0341 9.544 65.3514 9.544C67.3781 9.544 69.1134 9.91133 70.5574 10.646C72.0014 11.3807 73.1034 12.4067 73.8634 13.724C74.6234 15.0413 75.0034 16.574 75.0034 18.322V29H68.5814ZM63.5274 29.456C61.3234 29.456 59.6007 28.962 58.3594 27.974C57.1434 26.9607 56.5354 25.5167 56.5354 23.642C56.5354 21.666 57.1434 20.2093 58.3594 19.272C59.6007 18.3093 61.3234 17.828 63.5274 17.828H69.1134V21.742H66.2254C65.3387 21.742 64.6547 21.894 64.1734 22.198C63.6921 22.502 63.4514 22.9327 63.4514 23.49C63.4514 23.87 63.6161 24.1613 63.9454 24.364C64.2747 24.5667 64.7307 24.668 65.3134 24.668C65.9467 24.668 66.4914 24.554 66.9474 24.326C67.4034 24.0727 67.7581 23.7307 68.0114 23.3C68.2647 22.844 68.3914 22.3247 68.3914 21.742H70.1774C70.1774 24.1993 69.5947 26.0993 68.4294 27.442C67.2641 28.7847 65.6301 29.456 63.5274 29.456ZM87.9955 29.456C85.9182 29.456 84.0689 29.038 82.4475 28.202C80.8262 27.3407 79.5595 26.1627 78.6475 24.668C77.7355 23.148 77.2795 21.4253 77.2795 19.5C77.2795 17.5493 77.7355 15.8267 78.6475 14.332C79.5595 12.8373 80.8135 11.672 82.4095 10.836C84.0055 9.97467 85.8422 9.544 87.9195 9.544C89.9209 9.544 91.7575 10.0633 93.4295 11.102C95.1015 12.1407 96.2922 13.648 97.0015 15.624L90.4655 17.752C90.2629 17.2453 89.8829 16.8273 89.3255 16.498C88.7935 16.1687 88.1982 16.004 87.5395 16.004C86.9062 16.004 86.3489 16.156 85.8675 16.46C85.3862 16.7387 85.0062 17.144 84.7275 17.676C84.4489 18.208 84.3095 18.816 84.3095 19.5C84.3095 20.184 84.4489 20.792 84.7275 21.324C85.0062 21.8307 85.3989 22.236 85.9055 22.54C86.4122 22.844 86.9822 22.996 87.6155 22.996C88.2489 22.996 88.8315 22.8313 89.3635 22.502C89.8955 22.1727 90.2755 21.7547 90.5035 21.248L97.0395 23.338C96.3302 25.314 95.1395 26.834 93.4675 27.898C91.8209 28.9367 89.9969 29.456 87.9955 29.456ZM99.5021 29V10H106.342V29H99.5021ZM102.922 8.176C101.909 8.176 101.022 7.796 100.262 7.036C99.5021 6.276 99.1221 5.38933 99.1221 4.376C99.1221 3.33733 99.5021 2.45067 100.262 1.716C101.022 0.955999 101.909 0.575999 102.922 0.575999C103.961 0.575999 104.847 0.955999 105.582 1.716C106.342 2.45067 106.722 3.33733 106.722 4.376C106.722 5.38933 106.342 6.276 105.582 7.036C104.847 7.796 103.961 8.176 102.922 8.176ZM119.568 29.456C117.541 29.456 115.742 29.038 114.172 28.202C112.626 27.3407 111.41 26.1627 110.524 24.668C109.637 23.1733 109.194 21.4507 109.194 19.5C109.194 17.5493 109.624 15.8267 110.486 14.332C111.372 12.8373 112.588 11.672 114.134 10.836C115.704 9.97467 117.49 9.544 119.492 9.544C121.518 9.544 123.304 9.97467 124.85 10.836C126.42 11.672 127.636 12.8373 128.498 14.332C129.384 15.8267 129.828 17.5493 129.828 19.5C129.828 21.4507 129.384 23.1733 128.498 24.668C127.636 26.1627 126.433 27.3407 124.888 28.202C123.342 29.038 121.569 29.456 119.568 29.456ZM119.568 23.148C120.201 23.148 120.758 22.996 121.24 22.692C121.721 22.3627 122.101 21.932 122.38 21.4C122.658 20.8427 122.798 20.2093 122.798 19.5C122.798 18.7907 122.658 18.17 122.38 17.638C122.101 17.0807 121.708 16.65 121.202 16.346C120.72 16.0167 120.15 15.852 119.492 15.852C118.858 15.852 118.288 16.0167 117.782 16.346C117.3 16.65 116.92 17.0807 116.642 17.638C116.363 18.17 116.224 18.7907 116.224 19.5C116.224 20.2093 116.363 20.8427 116.642 21.4C116.92 21.932 117.313 22.3627 117.82 22.692C118.326 22.996 118.909 23.148 119.568 23.148ZM132.298 29V10H138.758L139.138 13.496V29H132.298ZM144.192 29V19.272H151.032V29H144.192ZM144.192 19.272C144.192 18.5373 144.103 17.942 143.926 17.486C143.774 17.0047 143.533 16.6373 143.204 16.384C142.9 16.1307 142.507 15.9913 142.026 15.966C141.063 15.9153 140.341 16.1307 139.86 16.612C139.379 17.0933 139.138 17.8533 139.138 18.892H137.276C137.276 16.8907 137.58 15.1933 138.188 13.8C138.796 12.4067 139.619 11.3553 140.658 10.646C141.697 9.91133 142.875 9.544 144.192 9.544C145.737 9.544 147.017 9.86067 148.03 10.494C149.043 11.102 149.791 12.0393 150.272 13.306C150.779 14.5727 151.032 16.1813 151.032 18.132V19.272H144.192ZM165.363 29L165.173 24.63V19.69C165.173 18.8033 165.122 18.0053 165.021 17.296C164.919 16.5867 164.666 16.0293 164.261 15.624C163.855 15.2187 163.197 15.016 162.285 15.016C161.651 15.016 161.132 15.168 160.727 15.472C160.321 15.776 159.979 16.1307 159.701 16.536L153.735 14.636C154.267 13.5973 154.925 12.698 155.711 11.938C156.521 11.178 157.459 10.5953 158.523 10.19C159.612 9.75933 160.815 9.544 162.133 9.544C164.159 9.544 165.895 9.91133 167.339 10.646C168.783 11.3807 169.885 12.4067 170.645 13.724C171.405 15.0413 171.785 16.574 171.785 18.322V29H165.363ZM160.309 29.456C158.105 29.456 156.382 28.962 155.141 27.974C153.925 26.9607 153.317 25.5167 153.317 23.642C153.317 21.666 153.925 20.2093 155.141 19.272C156.382 18.3093 158.105 17.828 160.309 17.828H165.895V21.742H163.007C162.12 21.742 161.436 21.894 160.955 22.198C160.473 22.502 160.233 22.9327 160.233 23.49C160.233 23.87 160.397 24.1613 160.727 24.364C161.056 24.5667 161.512 24.668 162.095 24.668C162.728 24.668 163.273 24.554 163.729 24.326C164.185 24.0727 164.539 23.7307 164.793 23.3C165.046 22.844 165.173 22.3247 165.173 21.742H166.959C166.959 24.1993 166.376 26.0993 165.211 27.442C164.045 28.7847 162.411 29.456 160.309 29.456ZM175.011 29V2.4H181.851V25.466L181.509 29H175.011ZM186.943 29.456C185.372 29.456 184.067 29.0633 183.029 28.278C182.015 27.4927 181.255 26.3527 180.749 24.858C180.267 23.3633 180.027 21.5773 180.027 19.5C180.027 17.3973 180.267 15.6113 180.749 14.142C181.255 12.6473 182.015 11.5073 183.029 10.722C184.067 9.93667 185.372 9.544 186.943 9.544C188.741 9.544 190.274 9.93667 191.541 10.722C192.833 11.5073 193.821 12.6473 194.505 14.142C195.189 15.6113 195.531 17.3973 195.531 19.5C195.531 21.5773 195.189 23.3633 194.505 24.858C193.821 26.3527 192.833 27.4927 191.541 28.278C190.274 29.0633 188.741 29.456 186.943 29.456ZM185.119 23.148C185.752 23.148 186.309 22.996 186.791 22.692C187.272 22.3627 187.652 21.932 187.931 21.4C188.235 20.8427 188.387 20.2093 188.387 19.5C188.387 18.7907 188.247 18.17 187.969 17.638C187.69 17.0807 187.31 16.65 186.829 16.346C186.347 16.042 185.79 15.89 185.157 15.89C184.523 15.89 183.953 16.042 183.447 16.346C182.94 16.65 182.547 17.0807 182.269 17.638C181.99 18.17 181.851 18.7907 181.851 19.5C181.851 20.2093 181.99 20.8427 182.269 21.4C182.547 21.932 182.927 22.3627 183.409 22.692C183.915 22.996 184.485 23.148 185.119 23.148ZM207.443 29.456C205.416 29.456 203.617 29.038 202.047 28.202C200.501 27.3407 199.285 26.1627 198.399 24.668C197.512 23.1733 197.069 21.4507 197.069 19.5C197.069 17.5493 197.499 15.8267 198.361 14.332C199.247 12.8373 200.463 11.672 202.009 10.836C203.579 9.97467 205.365 9.544 207.367 9.544C209.393 9.544 211.179 9.97467 212.725 10.836C214.295 11.672 215.511 12.8373 216.373 14.332C217.259 15.8267 217.703 17.5493 217.703 19.5C217.703 21.4507 217.259 23.1733 216.373 24.668C215.511 26.1627 214.308 27.3407 212.763 28.202C211.217 29.038 209.444 29.456 207.443 29.456ZM207.443 23.148C208.076 23.148 208.633 22.996 209.115 22.692C209.596 22.3627 209.976 21.932 210.255 21.4C210.533 20.8427 210.673 20.2093 210.673 19.5C210.673 18.7907 210.533 18.17 210.255 17.638C209.976 17.0807 209.583 16.65 209.077 16.346C208.595 16.0167 208.025 15.852 207.367 15.852C206.733 15.852 206.163 16.0167 205.657 16.346C205.175 16.65 204.795 17.0807 204.517 17.638C204.238 18.17 204.099 18.7907 204.099 19.5C204.099 20.2093 204.238 20.8427 204.517 21.4C204.795 21.932 205.188 22.3627 205.695 22.692C206.201 22.996 206.784 23.148 207.443 23.148ZM231.269 29L231.079 24.63V19.69C231.079 18.8033 231.028 18.0053 230.927 17.296C230.826 16.5867 230.572 16.0293 230.167 15.624C229.762 15.2187 229.103 15.016 228.191 15.016C227.558 15.016 227.038 15.168 226.633 15.472C226.228 15.776 225.886 16.1307 225.607 16.536L219.641 14.636C220.173 13.5973 220.832 12.698 221.617 11.938C222.428 11.178 223.365 10.5953 224.429 10.19C225.518 9.75933 226.722 9.544 228.039 9.544C230.066 9.544 231.801 9.91133 233.245 10.646C234.689 11.3807 235.791 12.4067 236.551 13.724C237.311 15.0413 237.691 16.574 237.691 18.322V29H231.269ZM226.215 29.456C224.011 29.456 222.288 28.962 221.047 27.974C219.831 26.9607 219.223 25.5167 219.223 23.642C219.223 21.666 219.831 20.2093 221.047 19.272C222.288 18.3093 224.011 17.828 226.215 17.828H231.801V21.742H228.913C228.026 21.742 227.342 21.894 226.861 22.198C226.38 22.502 226.139 22.9327 226.139 23.49C226.139 23.87 226.304 24.1613 226.633 24.364C226.962 24.5667 227.418 24.668 228.001 24.668C228.634 24.668 229.179 24.554 229.635 24.326C230.091 24.0727 230.446 23.7307 230.699 23.3C230.952 22.844 231.079 22.3247 231.079 21.742H232.865C232.865 24.1993 232.282 26.0993 231.117 27.442C229.952 28.7847 228.318 29.456 226.215 29.456Z" fill="white"/>
</svg>
